<?xml version="1.0" standalone="no"?>
<!DOCTYPE svg PUBLIC "-//W3C//DTD SVG 20010904//EN"
 "http://www.w3.org/TR/2001/REC-SVG-20010904/DTD/svg10.dtd">
<svg version="1.0" xmlns="http://www.w3.org/2000/svg"
 width="260.000000pt" height="260.000000pt" viewBox="0 0 260.000000 260.000000"
 preserveAspectRatio="xMidYMid meet">
<metadata>
Created by potrace 1.11, written by Peter Selinger 2001-2013
</metadata>
<g transform="translate(0.000000,260.000000) scale(0.100000,-0.100000)"
fill="#000000" stroke="none">
<path d="M675 1951 c-529 -528 -600 -603 -601 -630 -1 -17 1 -29 3 -27 9 9
154 -144 147 -156 -4 -6 -3 -8 3 -5 13 8 63 -34 63 -51 0 -7 5 -10 10 -7 6 3
10 2 10 -2 0 -5 13 -16 29 -26 27 -16 30 -16 53 3 14 11 29 16 32 12 4 -4 6
-2 4 4 -4 14 94 114 106 107 5 -3 6 -1 3 4 -9 14 29 47 44 37 8 -4 10 -3 5 5
-10 15 13 43 28 34 6 -3 8 -2 4 2 -10 11 73 96 86 88 5 -3 6 -2 3 4 -9 14 98
113 123 113 24 0 327 -296 322 -314 -2 -6 0 -8 3 -4 4 4 37 -22 72 -58 36 -36
62 -60 58 -53 -6 9 -2 11 12 7 14 -4 26 2 38 18 10 13 23 21 29 17 6 -3 8 -2
3 2 -10 12 43 66 57 58 6 -3 8 -2 3 2 -10 11 43 66 56 58 6 -3 7 -2 4 3 -6 10
77 96 85 88 3 -2 5 2 6 9 0 6 3 21 5 32 4 15 -45 70 -209 236 -118 118 -214
223 -214 232 0 23 112 137 134 137 20 0 287 -260 280 -272 -3 -5 0 -7 8 -6 7
2 12 -5 12 -14 -1 -9 4 -14 10 -12 14 6 218 -200 208 -211 -4 -5 -2 -5 4 -2
14 8 47 -26 37 -38 -5 -4 -3 -6 3 -2 13 7 127 -107 117 -117 -5 -4 -1 -6 7 -4
8 2 14 -3 13 -9 -2 -7 1 -12 6 -10 11 3 107 -93 103 -105 -1 -5 1 -7 6 -4 9 5
88 -73 85 -83 -1 -3 14 -6 32 -6 18 0 32 3 30 6 -7 10 36 40 47 33 7 -4 8 -3
4 4 -8 14 172 199 188 194 6 -2 8 -1 4 3 -4 4 -1 14 7 22 8 8 15 22 15 32 0
25 -1194 1215 -1223 1219 -17 2 -148 -123 -622 -597z"/>
<path d="M1486 1722 c-3 -5 1 -9 9 -9 8 0 12 4 9 9 -3 4 -7 8 -9 8 -2 0 -6 -4
-9 -8z"/>
<path d="M1653 1555 c0 -8 4 -12 9 -9 5 3 6 10 3 15 -9 13 -12 11 -12 -6z"/>
<path d="M681 1029 c-72 -72 -135 -138 -140 -147 -11 -21 2 -49 36 -75 13 -10
21 -23 17 -28 -3 -5 -2 -8 3 -7 10 3 53 -33 53 -45 0 -4 -5 -5 -12 -1 -7 4 -8
3 -4 -5 4 -6 12 -9 17 -5 11 6 119 -98 119 -116 0 -6 4 -9 8 -6 10 6 118 -104
114 -117 -1 -4 1 -6 6 -3 10 6 118 -105 114 -117 -1 -5 2 -6 6 -3 12 7 44 -28
35 -39 -5 -4 -3 -6 2 -2 6 3 57 -42 114 -99 105 -106 134 -122 161 -89 7 8 16
12 21 9 5 -3 8 -1 7 4 -4 13 328 343 337 334 3 -4 5 -2 3 4 -2 6 77 91 175
188 126 126 177 184 177 200 0 16 -40 63 -135 157 -74 74 -140 134 -147 135
-24 1 -38 -12 -247 -219 -211 -210 -234 -227 -263 -189 -43 54 -407 403 -425
406 -16 4 -51 -25 -152 -125z"/>
</g>
</svg>
